# xmcd
#
# Track frame offsets: 
#        150
#        15350
#        27812
#        39150
#        54725
#        69437
#        85500
#        100600
#        112600
#        127600
#        140950
#        156675
#        170800
#        181550
#
# Disc length: 2679 seconds
#
# Revision: 6
# Processed by: cddbd v1.5.2PL0 Copyright (c) Steve Scherf et al.
# Submitted via: ExactAudioCopy v1.0b3
#
DISCID=a20a750e
DTITLE=Graciela Susana - Adoro, La Reine De Saba
DYEAR=1992
DGENRE=Jazz
TTITLE0=アドロ
TTITLE1=遠くへ行きたい
TTITLE2=雪が降る
TTITLE3=誰もいない海
TTITLE4=サン・トワ・マミー
TTITLE5=時計
TTITLE6=サバの女王
TTITLE7=竹田の子守唄
TTITLE8=あなたのすべてを
TTITLE9=恋心
TTITLE10=忘れな草をあなたに
TTITLE11=夜霧のしのび逢い
TTITLE12=爪
TTITLE13=希望
EXTD=
EXTT0=
EXTT1=
EXTT2=
EXTT3=
EXTT4=
EXTT5=
EXTT6=
EXTT7=
EXTT8=
EXTT9=
EXTT10=
EXTT11=
EXTT12=
EXTT13=
PLAYORDER=
